<?xml version="1.0" standalone="no"?>
<!DOCTYPE svg PUBLIC "-//W3C//DTD SVG 20010904//EN"
 "http://www.w3.org/TR/2001/REC-SVG-20010904/DTD/svg10.dtd">
<svg version="1.0" xmlns="http://www.w3.org/2000/svg"
 width="588.000000pt" height="588.000000pt" viewBox="0 0 588.000000 588.000000"
 preserveAspectRatio="xMidYMid meet">
<metadata>
Created by potrace 1.14, written by Peter Selinger 2001-2017
</metadata>
<g transform="translate(0.000000,588.000000) scale(0.100000,-0.100000)"
fill="#000000" stroke="none">
<path d="M1694 5782 c-10 -15 -28 -44 -41 -64 -12 -21 -23 -40 -23 -42 0 -3
-14 -29 -31 -58 -18 -29 -43 -73 -57 -98 -14 -25 -140 -245 -280 -490 -140
-245 -266 -465 -280 -490 -21 -37 -290 -507 -330 -575 -16 -28 -120 -211 -150
-265 -25 -44 -39 -70 -79 -140 -18 -31 -20 -51 -18 -170 1 -74 6 -493 10 -930
10 -1084 9 -1068 15 -1073 4 -3 160 -96 258 -152 103 -59 583 -342 602 -354
14 -8 34 -21 45 -27 11 -6 94 -54 183 -107 90 -54 168 -97 173 -97 5 0 9 -4 9
-8 0 -5 15 -15 33 -24 25 -12 219 -125 357 -207 8 -5 169 -100 358 -211 l343
-202 119 69 120 68 1 90 c0 50 0 504 1 1010 l0 920 37 65 c20 36 41 73 46 82
6 9 22 39 37 66 14 26 35 64 46 83 11 19 68 120 127 224 60 105 119 207 131
227 13 21 24 40 24 44 0 4 20 40 45 81 25 40 45 75 45 78 0 2 20 38 45 79 25
42 45 78 45 80 0 3 19 37 43 78 24 40 60 102 79 138 36 64 289 512 306 540 7
11 28 3 116 -48 59 -35 124 -72 144 -84 61 -34 206 -118 222 -128 8 -6 22 -13
30 -17 8 -3 39 -21 68 -40 29 -18 54 -33 56 -33 3 0 50 -27 106 -60 56 -33
104 -60 107 -60 3 0 17 -8 31 -18 15 -11 52 -32 82 -49 30 -17 71 -40 91 -52
l37 -22 0 -1005 c0 -553 2 -1007 4 -1008 1 -2 56 28 121 66 l117 70 0 1058 0
1058 -27 18 c-16 10 -48 30 -73 44 -38 21 -256 148 -310 180 -8 5 -53 32 -100
59 -98 57 -550 320 -597 347 -74 44 -201 118 -241 141 -24 14 -65 38 -90 54
-26 15 -72 42 -102 59 -30 16 -62 35 -70 40 -47 31 -344 200 -351 200 -5 0 -9
4 -9 9 0 5 -8 11 -17 14 -25 8 -97 50 -101 60 -2 4 -7 7 -12 7 -4 0 -111 60
-237 133 -125 73 -304 178 -398 231 -93 54 -187 109 -207 122 -21 13 -40 24
-43 24 -3 0 -31 16 -61 35 -30 19 -56 35 -59 35 -4 0 -155 87 -440 255 -49 29
-107 62 -127 74 l-38 21 -16 -28z"/>
</g>
</svg>
